<?xml version="1.0" encoding="UTF-8" standalone="no"?>
<!-- Created with Inkscape (http://www.inkscape.org/) -->

<svg
   width="32"
   height="32"
   viewBox="0 0 8.4666659 8.4666659"
   version="1.1"
   id="svg140372"
   inkscape:version="1.1.2 (0a00cf5339, 2022-02-04)"
   sodipodi:docname="open-ai-black.svg"
   xmlns:inkscape="http://www.inkscape.org/namespaces/inkscape"
   xmlns:sodipodi="http://sodipodi.sourceforge.net/DTD/sodipodi-0.dtd"
   xmlns="http://www.w3.org/2000/svg"
   xmlns:svg="http://www.w3.org/2000/svg">
  <sodipodi:namedview
     id="namedview140374"
     pagecolor="#ffffff"
     bordercolor="#666666"
     borderopacity="1.0"
     inkscape:pageshadow="2"
     inkscape:pageopacity="0.0"
     inkscape:pagecheckerboard="0"
     inkscape:document-units="px"
     showgrid="false"
     units="px"
     inkscape:zoom="8.4863924"
     inkscape:cx="57.503822"
     inkscape:cy="13.963531"
     inkscape:window-width="1919"
     inkscape:window-height="1025"
     inkscape:window-x="1"
     inkscape:window-y="1"
     inkscape:window-maximized="1"
     inkscape:current-layer="layer1" />
  <defs
     id="defs140369" />
  <g
     inkscape:label="Layer 1"
     inkscape:groupmode="layer"
     id="layer1">
    <path
       id="path135384"
       style="color:#000000;fill:#000000;stroke-width:0.112808;-inkscape-stroke:none"
       inkscape:transform-center-x="1.4623923"
       inkscape:transform-center-y="0.0038934404"
       d="m 3.5662495,0.2646245 c -0.263353,0.0025 -0.511103,0.06148 -0.732133,0.161611 -0.589416,0.267025 -0.999626,0.78391 -1.152351,1.267966 l -0.0076,0.02428 -0.0021,0.02545 c -0.0036,0.04569 -0.007,0.09157 -0.01025,0.137565 l -0.0047,-0.01214 c -0.90656495,0.354207 -1.31821995,1.01786 -1.38222595,1.663037 -0.06401,0.645174 0.177472,1.259715 0.519317,1.634319 l 0.01718,0.01873 0.0209,0.01459 c 0.03766,0.02602 0.07563,0.05188 0.113773,0.07768 l -0.01287,-0.002 c -0.147258,0.96408 0.22023095,1.653221 0.74564495,2.031372 0.525407,0.378149 1.177154,0.475803 1.671724,0.366355 l 0.02481,-0.0055 0.023,-0.01085 c 0.0029,-0.0014 0.0058,-0.0028 0.0087,-0.0042 0.852481,0.584016 1.523953,0.693829 2.250316,0.369503 0.59085,-0.263817 0.98443,-0.830603 1.137155,-1.314656 l 0.0076,-0.02428 0.0021,-0.02539 c 7.21e-4,-0.0089 0.0012,-0.01782 0.0019,-0.02673 0.913919,-0.359932 1.38312,-1.114462 1.395268,-1.749356 0.01452,-0.758802 -0.205653,-1.179755 -0.547498,-1.55436 l -0.01712,-0.01874 -0.0209,-0.01453 c -0.0068,-0.0047 -0.01372,-0.0094 -0.02056,-0.01413 0.158718,-1.073908 -0.290163,-1.763215 -0.797928,-2.128664 -0.525411,-0.378149 -1.177094,-0.475746 -1.671668,-0.366298 l -0.0248,0.0055 -0.023,0.01092 c -0.02141,0.0102 -0.04286,0.0207 -0.06428,0.03105 l -0.05159,-0.03811 c -0.474566,-0.38117 -0.956875,-0.534055 -1.395793,-0.529946 z m 0.05642,0.438784 c 0.286586,0.0051 0.601475,0.105964 0.944775,0.353628 -0.546643,0.285393 -1.09626,0.60719 -1.644244,0.931906 l -0.111093,0.06589 0.02364,2.458717 -0.768,-0.438727 c -0.0073,-0.779514 -0.0067,-1.548443 0.04874,-2.263838 0.113911,-0.339233 0.4538,-0.773358 0.901805,-0.976321 0.185151,-0.08388 0.386624,-0.135162 0.604384,-0.131259 z m 1.873654,0.493119 c 0.327386,-0.0022 0.72827,0.09459 1.040267,0.319137 0.349891,0.251827 0.634358,0.796685 0.625638,1.473352 -0.516303,-0.33929 -1.055999,-0.666337 -1.616993,-0.983325 l -0.112495,-0.0635 -2.162162,1.271761 -0.0086,-0.903362 c 0.669839,-0.396079 1.334395,-0.780112 1.980209,-1.089665 0.07657,-0.01547 0.162486,-0.02379 0.254154,-0.0244 z m -3.861022,1.170558 c -0.02437,0.600918 -0.02116,1.22096 -0.01479,1.840988 l 0.0013,0.129394 2.183415,1.245963 -0.761304,0.438491 C 2.3668055,5.6384805 1.7027405,5.2535925 1.1123915,4.8477485 0.87626255,4.5792475 0.67112455,4.0670755 0.71977455,3.5766875 c 0.04537,-0.457344 0.275979,-0.903464 0.91548795,-1.209602 z m 3.801397,0.09344 c 0.67712,0.383441 1.308633,0.78018 1.898985,1.186024 0.236133,0.268501 0.469391,0.700657 0.420739,1.191042 -0.0449,0.452605 -0.294328,0.970532 -0.923173,1.290497 0.0202,-0.613755 -0.0013,-1.232118 -0.0079,-1.88196 l -0.0013,-0.129394 -2.139631,-1.21404 z m -1.201492,0.706152 0.957525,0.541855 0.0094,1.070346 -0.947047,0.545474 -0.969697,-0.553937 -0.0099,-1.039645 z m 1.406391,0.795916 0.736501,0.416779 c 0.0073,0.779516 0.03712,1.496208 -0.01834,2.211603 -0.11391,0.339233 -0.451119,0.778438 -0.899124,0.981397 -0.387981,0.17577 -1.012191,0.177656 -1.592657,-0.149588 0.560087,-0.290606 1.123445,-0.620237 1.685062,-0.953031 l 0.111093,-0.06589 -0.01263,-1.366368 0.0016,-8.7e-4 -0.0047,-0.514716 -0.0016,9.27e-4 z m -0.43489,1.331643 0.0076,0.853871 c -0.66984,0.396075 -1.334396,0.780111 -1.980207,1.089661 -0.350043,0.07073 -0.895126,-0.0073 -1.294481,-0.294737 -0.37245,-0.268062 -0.642588,-0.691303 -0.587326,-1.399521 0.507004,0.32162 1.04428,0.62881 1.583165,0.933304 l 0.112492,0.0635 z" />
  </g>
</svg>
